<?xml version="1.0"?>
<svg width="212" height="153" xmlns="http://www.w3.org/2000/svg" xmlns:svg="http://www.w3.org/2000/svg" xmlns:xlink="http://www.w3.org/1999/xlink">
 <!-- Created with SVG-edit - https://github.com/SVG-Edit/svgedit-->
 <defs>
  <symbol height="20" id="svg_1" viewBox="0 0 20 20" width="20" xmlns="http://www.w3.org/2000/svg">
   <path d="m19.0967,7.41927c-0.0577,-0.16981 -0.1638,-0.31902 -0.3053,-0.42921c-0.1415,-0.11019 -0.3121,-0.17653 -0.4909,-0.19084l-5.2291,-0.41551l-2.2628,-5.00901c-0.0721,-0.16133 -0.1893,-0.29836 -0.3375,-0.39454c-0.1483,-0.09619 -0.3211,-0.14742 -0.49784,-0.14752c-0.17669,-0.00009 -0.34964,0.05095 -0.49796,0.14697c-0.14833,0.09602 -0.2657,0.23292 -0.33794,0.39417l-2.26281,5.00993l-5.22916,0.41551c-0.17569,0.01392 -0.34365,0.07816 -0.48379,0.18503c-0.14013,0.10688 -0.24651,0.25187 -0.30641,0.41762c-0.05989,0.16575 -0.07077,0.34525 -0.03132,0.51702c0.03945,0.17177 0.12755,0.32854 0.25376,0.45155l3.8643,3.76706l-1.36667,5.918c-0.0415,0.1792 -0.0282,0.3666 0.03817,0.5381c0.06637,0.1715 0.18275,0.3191 0.33404,0.4236c0.15129,0.1045 0.3305,0.1611 0.51437,0.1625c0.18387,0.0014 0.36392,-0.0525 0.51678,-0.1547l4.99434,-3.3295l4.99434,3.3295c0.1562,0.1038 0.3405,0.1572 0.528,0.1531c0.1875,-0.0042 0.3692,-0.0656 0.5208,-0.1761c0.1515,-0.1104 0.2656,-0.2647 0.3268,-0.4419c0.0613,-0.1773 0.0668,-0.369 0.0158,-0.5495l-1.6776,-5.8703l4.1606,-3.74418c0.2724,-0.24581 0.3724,-0.62922 0.255,-0.97685z" fill="#F3CD03"/>
  </symbol>
 </defs>
 <g class="layer">
  <title>Layer 1</title>
  <use id="svg_2" transform="matrix(8.2689 0 0 8 -5.18166 0)" x="3.386182" xlink:href="#svg_1" y="-0.125"/>
  <g id="svg_3"/>
 </g>
</svg>